<?xml version="1.0" encoding="iso-8859-1"?>
<!-- Generator: Adobe Illustrator 19.0.0, SVG Export Plug-In . SVG Version: 6.00 Build 0)  -->
<svg version="1.1" id="Layer_1" xmlns="http://www.w3.org/2000/svg" xmlns:xlink="http://www.w3.org/1999/xlink" x="0px" y="0px"
	 viewBox="0 0 512 512" style="enable-background:new 0 0 512 512;" xml:space="preserve">
<path style="fill:#507C5C;" d="M385.465,122.608c-8.078,0-14.629-6.549-14.629-14.629c0-21.531-17.518-39.047-39.047-39.047H180.211
	c-21.531,0-39.047,17.517-39.047,39.047c0,8.08-6.551,14.629-14.629,14.629c-8.078,0-14.629-6.549-14.629-14.629
	c0-37.663,30.642-68.305,68.305-68.305h151.577c37.663,0,68.305,30.642,68.305,68.305
	C400.094,116.058,393.545,122.608,385.465,122.608z"/>
<path style="fill:#CFF09E;" d="M170.421,151.865v-28.813c0-13.732,11.133-24.865,24.865-24.865h121.428
	c13.732,0,24.865,11.133,24.865,24.865v28.813L170.421,151.865L170.421,151.865z"/>
<path style="fill:#507C5C;" d="M341.579,166.494H170.421c-8.078,0-14.629-6.549-14.629-14.629v-28.813
	c0-21.776,17.717-39.493,39.493-39.493h121.428c21.776,0,39.493,17.717,39.493,39.493v28.813
	C356.207,159.945,349.658,166.494,341.579,166.494z M185.05,137.237h141.9v-14.184c0-5.644-4.592-10.236-10.236-10.236H195.286
	c-5.644,0-10.236,4.592-10.236,10.236L185.05,137.237L185.05,137.237z"/>
<path style="fill:#CFF09E;" d="M141.072,321.313h40.926c26.657,0,48.268,21.61,48.268,48.268v85.982H80.815V369.58
	c0-26.657,21.61-48.268,48.268-48.268h40.926"/>
<g>
	<path style="fill:#507C5C;" d="M497.371,135.579h-67.993c-8.078,0-14.629,6.549-14.629,14.629c0,8.079,6.551,14.629,14.629,14.629
		h53.365v278.231H244.894V369.58c0-24.168-13.712-45.184-33.756-55.711c5.215-7.828,8.264-17.22,8.264-27.311v-32.673
		c0-8.079-6.551-14.629-14.629-14.629c-8.078,0-14.629,6.549-14.629,14.629v32.673c0,11.045-8.943,20.034-19.965,20.126h-29.277
		c-11.023-0.092-19.965-9.082-19.965-20.126v-32.673c0-11.102,9.033-20.135,20.135-20.135h28.937
		c8.078,0,14.629-6.549,14.629-14.629c0-8.079-6.551-14.629-14.629-14.629h-28.937c-27.234,0-49.393,22.157-49.393,49.393v32.673
		c0,10.091,3.047,19.483,8.264,27.311c-20.046,10.527-33.756,31.543-33.756,55.711v73.488H29.258V164.837h53.364
		c8.078,0,14.629-6.549,14.629-14.629c0-8.08-6.551-14.629-14.629-14.629H14.629C6.551,135.579,0,142.129,0,150.208v307.489
		c0,8.08,6.551,14.629,14.629,14.629h482.742c8.078,0,14.629-6.549,14.629-14.629V150.208
		C512,142.129,505.451,135.579,497.371,135.579z M95.443,369.58c0-18.548,15.09-33.638,33.639-33.638h11.65
		c0.06,0,0.118,0.004,0.178,0.004v67.129c0,8.079,6.551,14.629,14.629,14.629c8.078,0,14.629-6.549,14.629-14.629v-67.129
		c0.06,0,0.118-0.004,0.178-0.004h11.65c18.549,0,33.639,15.09,33.639,33.638v71.355H95.443V369.58z"/>
	<path style="fill:#507C5C;" d="M431.186,334.986c-8.078,0-14.629-6.549-14.629-14.629V255.99H300.99v49.738h64.727
		c8.078,0,14.629,6.549,14.629,14.629c0,8.079-6.551,14.629-14.629,14.629h-79.355c-8.078,0-14.629-6.549-14.629-14.629v-78.996
		c0-8.079,6.551-14.629,14.629-14.629h144.825c8.078,0,14.629,6.549,14.629,14.629v78.996
		C445.815,328.437,439.264,334.986,431.186,334.986z"/>
	<path style="fill:#507C5C;" d="M431.186,404.716H286.361c-8.078,0-14.629-6.549-14.629-14.629c0-8.08,6.551-14.629,14.629-14.629
		h144.825c8.078,0,14.629,6.549,14.629,14.629C445.815,398.167,439.264,404.716,431.186,404.716z"/>
</g>
<g>
</g>
<g>
</g>
<g>
</g>
<g>
</g>
<g>
</g>
<g>
</g>
<g>
</g>
<g>
</g>
<g>
</g>
<g>
</g>
<g>
</g>
<g>
</g>
<g>
</g>
<g>
</g>
<g>
</g>
</svg>
