<?xml version="1.0" encoding="iso-8859-1"?>
<!-- Generator: Adobe Illustrator 19.0.0, SVG Export Plug-In . SVG Version: 6.00 Build 0)  -->
<svg version="1.1" id="Layer_1" xmlns="http://www.w3.org/2000/svg" xmlns:xlink="http://www.w3.org/1999/xlink" x="0px" y="0px"
	 viewBox="0 0 512 512" style="enable-background:new 0 0 512 512;" xml:space="preserve">
<g>
	<polygon style="fill:#C8DA2E;" points="52.245,386.612 52.245,250.775 130.612,250.775 146.286,250.775 146.286,386.612 	"/>
	<polygon style="fill:#C8DA2E;" points="381.388,386.612 365.714,386.612 365.714,250.775 381.388,250.775 459.755,250.775 
		459.755,386.612 	"/>
</g>
<polygon style="fill:#B7B8B9;" points="407.51,31.347 407.51,73.143 381.388,73.143 130.612,73.143 104.49,73.143 104.49,31.347 "/>
<polygon style="fill:#F2F2F2;" points="256,386.612 308.245,386.612 308.245,480.653 203.755,480.653 203.755,386.612 "/>
<polygon style="fill:#E6E6E6;" points="365.714,250.775 381.388,250.775 381.388,73.143 130.612,73.143 130.612,250.775 
	146.286,250.775 146.286,386.612 130.612,386.612 130.612,480.653 203.755,480.653 203.755,386.612 308.245,386.612 
	308.245,480.653 381.388,480.653 381.388,386.612 365.714,386.612 "/>
<path d="M420.571,472.816v-78.367h47.02v-151.51h-78.367V80.98h26.122V23.51H96.653V80.98h26.122v161.959H44.408v151.51h47.02
	v78.367H0v15.673h512v-15.673H420.571z M404.898,472.816h-15.673v-78.367h15.673V472.816z M451.918,378.775h-31.347v-49.633h-15.673
	v49.633h-31.347V258.612h78.367V378.775z M112.327,39.184h287.347v26.122H112.327V39.184z M138.449,80.98h235.102v161.959h-15.673
	v151.51h15.673v78.367h-57.469v-78.367h13.061v-15.673H182.857v15.673h13.061v78.367h-57.469v-78.367h15.673v-151.51h-15.673V80.98z
	 M248.163,394.449v54.857h15.673v-54.857h36.571v78.367h-88.816v-78.367H248.163z M60.082,378.775V258.612h78.367v120.163h-31.347
	v-49.633H91.429v49.633H60.082z M107.102,394.449h15.673v78.367h-15.673V394.449z"/>
<rect x="167.184" y="112.327" width="177.633" height="15.673"/>
<rect x="167.184" y="154.122" width="177.633" height="15.673"/>
<rect x="167.184" y="195.918" width="177.633" height="15.673"/>
<rect x="167.184" y="237.714" width="177.633" height="15.673"/>
<rect x="167.184" y="279.51" width="177.633" height="15.673"/>
<rect x="167.184" y="321.306" width="177.633" height="15.673"/>
<g>
</g>
<g>
</g>
<g>
</g>
<g>
</g>
<g>
</g>
<g>
</g>
<g>
</g>
<g>
</g>
<g>
</g>
<g>
</g>
<g>
</g>
<g>
</g>
<g>
</g>
<g>
</g>
<g>
</g>
</svg>
